<svg width="180" height="180" viewBox="0 0 180 180" fill="none" xmlns="http://www.w3.org/2000/svg">
<g clip-path="url(#clip0_2034_40)">
<path d="M180 0H0V180H180V0Z" fill="#1A1A2E"/>
<path d="M60 30H30V60H60V30Z" fill="url(#paint0_linear_2034_40)"/>
<path d="M90 30H75V45H90V30Z" fill="url(#paint1_linear_2034_40)"/>
<path d="M150 30H120V60H150V30Z" fill="url(#paint2_linear_2034_40)"/>
<path d="M45 75H30V90H45V75Z" fill="url(#paint3_linear_2034_40)"/>
<path d="M150 75H135V90H150V75Z" fill="url(#paint4_linear_2034_40)"/>
<path d="M60 120H30V150H60V120Z" fill="url(#paint5_linear_2034_40)"/>
<path d="M90 135H75V150H90V135Z" fill="url(#paint6_linear_2034_40)"/>
<path d="M150 120H120V150H150V120Z" fill="url(#paint7_linear_2034_40)"/>
<path d="M78 72.8824H79.8824V74.7647H78V72.8824ZM79.8824 72.8824H81.7647V74.7647H79.8824V72.8824ZM79.8824 71H81.7647V72.8824H79.8824V71ZM78 71H79.8824V72.8824H78V71ZM81.7647 71H83.6471V72.8824H81.7647V71ZM81.7647 72.8824H83.6471V74.7647H81.7647V72.8824ZM83.6471 72.8824H85.5294V74.7647H83.6471V72.8824ZM83.6471 74.7647H85.5294V76.6471H83.6471V74.7647ZM83.6471 71H85.5294V72.8824H83.6471V71ZM83.6471 76.6471H85.5294V78.5294H83.6471V76.6471ZM83.6471 80.4118H85.5294V82.2941H83.6471V80.4118ZM83.6471 82.2941H85.5294V84.1765H83.6471V82.2941ZM83.6471 84.1765H85.5294V86.0588H83.6471V84.1765ZM83.6471 86.0588H85.5294V87.9412H83.6471V86.0588ZM83.6471 87.9412H85.5294V89.8235H83.6471V87.9412ZM83.6471 89.8235H85.5294V91.7059H83.6471V89.8235ZM83.6471 91.7059H85.5294V93.5882H83.6471V91.7059ZM83.6471 93.5882H85.5294V95.4706H83.6471V93.5882ZM83.6471 95.4706H85.5294V97.3529H83.6471V95.4706ZM83.6471 78.5294H85.5294V80.4118H83.6471V78.5294ZM81.7647 74.7647H83.6471V76.6471H81.7647V74.7647ZM79.8824 74.7647H81.7647V76.6471H79.8824V74.7647ZM79.8824 76.6471H81.7647V78.5294H79.8824V76.6471ZM79.8824 78.5294H81.7647V80.4118H79.8824V78.5294ZM81.7647 78.5294H83.6471V80.4118H81.7647V78.5294ZM81.7647 80.4118H83.6471V82.2941H81.7647V80.4118ZM81.7647 82.2941H83.6471V84.1765H81.7647V82.2941ZM81.7647 84.1765H83.6471V86.0588H81.7647V84.1765ZM81.7647 86.0588H83.6471V87.9412H81.7647V86.0588ZM81.7647 87.9412H83.6471V89.8235H81.7647V87.9412ZM81.7647 89.8235H83.6471V91.7059H81.7647V89.8235ZM81.7647 91.7059H83.6471V93.5882H81.7647V91.7059ZM81.7647 76.6471H83.6471V78.5294H81.7647V76.6471ZM78 74.7647H79.8824V76.6471H78V74.7647ZM78 76.6471H79.8824V78.5294H78V76.6471ZM78 78.5294H79.8824V80.4118H78V78.5294ZM78 80.4118H79.8824V82.2941H78V80.4118ZM78 82.2941H79.8824V84.1765H78V82.2941ZM78 84.1765H79.8824V86.0588H78V84.1765ZM78 86.0588H79.8824V87.9412H78V86.0588ZM78 87.9412H79.8824V89.8235H78V87.9412ZM78 89.8235H79.8824V91.7059H78V89.8235ZM78 91.7059H79.8824V93.5882H78V91.7059ZM78 93.5882H79.8824V95.4706H78V93.5882ZM79.8824 93.5882H81.7647V95.4706H79.8824V93.5882ZM79.8824 95.4706H81.7647V97.3529H79.8824V95.4706ZM79.8824 91.7059H81.7647V93.5882H79.8824V91.7059ZM79.8824 86.0588H81.7647V87.9412H79.8824V86.0588ZM79.8824 84.1765H81.7647V86.0588H79.8824V84.1765ZM79.8824 82.2941H81.7647V84.1765H79.8824V82.2941ZM79.8824 80.4118H81.7647V82.2941H79.8824V80.4118ZM79.8824 87.9412H81.7647V89.8235H79.8824V87.9412ZM79.8824 89.8235H81.7647V91.7059H79.8824V89.8235ZM78 95.4706H79.8824V97.3529H78V95.4706ZM78 97.3529H79.8824V99.2353H78V97.3529ZM79.8824 97.3529H81.7647V99.2353H79.8824V97.3529ZM81.7647 95.4706H83.6471V97.3529H81.7647V95.4706ZM81.7647 93.5882H83.6471V95.4706H81.7647V93.5882ZM85.5294 95.4706H87.4118V97.3529H85.5294V95.4706ZM85.5294 97.3529H87.4118V99.2353H85.5294V97.3529ZM83.6471 97.3529H85.5294V99.2353H83.6471V97.3529ZM81.7647 97.3529H83.6471V99.2353H81.7647V97.3529ZM79.8824 99.2353H81.7647V101.118H79.8824V99.2353ZM81.7647 99.2353H83.6471V101.118H81.7647V99.2353ZM83.6471 99.2353H85.5294V101.118H83.6471V99.2353ZM85.5294 99.2353H87.4118V101.118H85.5294V99.2353ZM87.4118 99.2353H89.2941V101.118H87.4118V99.2353ZM87.4118 97.3529H89.2941V99.2353H87.4118V97.3529ZM85.5294 101.118H87.4118V103H85.5294V101.118ZM83.6471 101.118H85.5294V103H83.6471V101.118ZM81.7647 101.118H83.6471V103H81.7647V101.118ZM87.4118 101.118H89.2941V103H87.4118V101.118ZM89.2941 101.118H91.1765V103H89.2941V101.118ZM89.2941 99.2353H91.1765V101.118H89.2941V99.2353ZM87.4118 106.765H89.2941V108.647H87.4118V106.765ZM89.2941 106.765H91.1765V108.647H89.2941V106.765ZM91.1765 106.765H93.0588V108.647H91.1765V106.765ZM91.1765 104.882H93.0588V106.765H91.1765V104.882ZM93.0588 104.882H94.9412V106.765H93.0588V104.882ZM89.2941 104.882H91.1765V106.765H89.2941V104.882ZM87.4118 104.882H89.2941V106.765H87.4118V104.882ZM85.5294 104.882H87.4118V106.765H85.5294V104.882ZM85.5294 103H87.4118V104.882H85.5294V103ZM83.6471 103H85.5294V104.882H83.6471V103ZM87.4118 103H89.2941V104.882H87.4118V103ZM89.2941 103H91.1765V104.882H89.2941V103ZM91.1765 103H93.0588V104.882H91.1765V103ZM93.0588 103H94.9412V104.882H93.0588V103ZM94.9412 103H96.8235V104.882H94.9412V103ZM94.9412 101.118H96.8235V103H94.9412V101.118ZM96.8235 101.118H98.7059V103H96.8235V101.118ZM98.7059 99.2353H100.588V101.118H98.7059V99.2353ZM98.7059 97.3529H100.588V99.2353H98.7059V97.3529ZM100.588 97.3529H102.471V99.2353H100.588V97.3529ZM96.8235 97.3529H98.7059V99.2353H96.8235V97.3529ZM96.8235 99.2353H98.7059V101.118H96.8235V99.2353ZM94.9412 99.2353H96.8235V101.118H94.9412V99.2353ZM93.0588 99.2353H94.9412V101.118H93.0588V99.2353ZM93.0588 101.118H94.9412V103H93.0588V101.118ZM91.1765 101.118H93.0588V103H91.1765V101.118ZM91.1765 99.2353H93.0588V101.118H91.1765V99.2353ZM91.1765 97.3529H93.0588V99.2353H91.1765V97.3529ZM93.0588 97.3529H94.9412V99.2353H93.0588V97.3529ZM93.0588 95.4706H94.9412V97.3529H93.0588V95.4706ZM94.9412 97.3529H96.8235V99.2353H94.9412V97.3529ZM94.9412 95.4706H96.8235V97.3529H94.9412V95.4706ZM96.8235 95.4706H98.7059V97.3529H96.8235V95.4706ZM98.7059 95.4706H100.588V97.3529H98.7059V95.4706ZM100.588 95.4706H102.471V97.3529H100.588V95.4706ZM100.588 93.5882H102.471V95.4706H100.588V93.5882ZM98.7059 93.5882H100.588V95.4706H98.7059V93.5882ZM96.8235 93.5882H98.7059V95.4706H96.8235V93.5882ZM94.9412 93.5882H96.8235V95.4706H94.9412V93.5882ZM94.9412 91.7059H96.8235V93.5882H94.9412V91.7059ZM96.8235 91.7059H98.7059V93.5882H96.8235V91.7059ZM98.7059 91.7059H100.588V93.5882H98.7059V91.7059ZM100.588 91.7059H102.471V93.5882H100.588V91.7059ZM100.588 89.8235H102.471V91.7059H100.588V89.8235ZM98.7059 89.8235H100.588V91.7059H98.7059V89.8235ZM96.8235 89.8235H98.7059V91.7059H96.8235V89.8235ZM94.9412 89.8235H96.8235V91.7059H94.9412V89.8235ZM100.588 87.9412H102.471V89.8235H100.588V87.9412ZM98.7059 87.9412H100.588V89.8235H98.7059V87.9412ZM96.8235 87.9412H98.7059V89.8235H96.8235V87.9412ZM94.9412 87.9412H96.8235V89.8235H94.9412V87.9412ZM94.9412 86.0588H96.8235V87.9412H94.9412V86.0588ZM96.8235 86.0588H98.7059V87.9412H96.8235V86.0588ZM98.7059 86.0588H100.588V87.9412H98.7059V86.0588ZM100.588 86.0588H102.471V87.9412H100.588V86.0588ZM100.588 84.1765H102.471V86.0588H100.588V84.1765ZM98.7059 84.1765H100.588V86.0588H98.7059V84.1765ZM96.8235 84.1765H98.7059V86.0588H96.8235V84.1765ZM94.9412 84.1765H96.8235V86.0588H94.9412V84.1765ZM100.588 82.2941H102.471V84.1765H100.588V82.2941ZM98.7059 82.2941H100.588V84.1765H98.7059V82.2941ZM96.8235 82.2941H98.7059V84.1765H96.8235V82.2941ZM94.9412 82.2941H96.8235V84.1765H94.9412V82.2941ZM94.9412 80.4118H96.8235V82.2941H94.9412V80.4118ZM96.8235 80.4118H98.7059V82.2941H96.8235V80.4118ZM98.7059 80.4118H100.588V82.2941H98.7059V80.4118ZM100.588 80.4118H102.471V82.2941H100.588V80.4118ZM100.588 78.5294H102.471V80.4118H100.588V78.5294ZM98.7059 78.5294H100.588V80.4118H98.7059V78.5294ZM96.8235 78.5294H98.7059V80.4118H96.8235V78.5294ZM94.9412 78.5294H96.8235V80.4118H94.9412V78.5294ZM94.9412 76.6471H96.8235V78.5294H94.9412V76.6471ZM96.8235 76.6471H98.7059V78.5294H96.8235V76.6471ZM98.7059 76.6471H100.588V78.5294H98.7059V76.6471ZM100.588 76.6471H102.471V78.5294H100.588V76.6471ZM100.588 74.7647H102.471V76.6471H100.588V74.7647ZM98.7059 74.7647H100.588V76.6471H98.7059V74.7647ZM96.8235 74.7647H98.7059V76.6471H96.8235V74.7647ZM94.9412 74.7647H96.8235V76.6471H94.9412V74.7647ZM94.9412 71H96.8235V72.8824H94.9412V71ZM96.8235 71H98.7059V72.8824H96.8235V71ZM98.7059 71H100.588V72.8824H98.7059V71ZM100.588 71H102.471V72.8824H100.588V71ZM100.588 72.8824H102.471V74.7647H100.588V72.8824ZM98.7059 72.8824H100.588V74.7647H98.7059V72.8824ZM96.8235 72.8824H98.7059V74.7647H96.8235V72.8824ZM94.9412 72.8824H96.8235V74.7647H94.9412V72.8824Z" fill="#648FE6"/>
</g>
<defs>
<linearGradient id="paint0_linear_2034_40" x1="30" y1="30" x2="3030" y2="3030" gradientUnits="userSpaceOnUse">
<stop stop-color="#638FE6"/>
<stop offset="1" stop-color="#7AA0EB"/>
</linearGradient>
<linearGradient id="paint1_linear_2034_40" x1="75" y1="30" x2="1575" y2="1530" gradientUnits="userSpaceOnUse">
<stop stop-color="#638FE6"/>
<stop offset="1" stop-color="#7AA0EB"/>
</linearGradient>
<linearGradient id="paint2_linear_2034_40" x1="120" y1="30" x2="3120" y2="3030" gradientUnits="userSpaceOnUse">
<stop stop-color="#638FE6"/>
<stop offset="1" stop-color="#7AA0EB"/>
</linearGradient>
<linearGradient id="paint3_linear_2034_40" x1="30" y1="75" x2="1530" y2="1575" gradientUnits="userSpaceOnUse">
<stop stop-color="#638FE6"/>
<stop offset="1" stop-color="#7AA0EB"/>
</linearGradient>
<linearGradient id="paint4_linear_2034_40" x1="135" y1="75" x2="1635" y2="1575" gradientUnits="userSpaceOnUse">
<stop stop-color="#638FE6"/>
<stop offset="1" stop-color="#7AA0EB"/>
</linearGradient>
<linearGradient id="paint5_linear_2034_40" x1="30" y1="120" x2="3030" y2="3120" gradientUnits="userSpaceOnUse">
<stop stop-color="#638FE6"/>
<stop offset="1" stop-color="#7AA0EB"/>
</linearGradient>
<linearGradient id="paint6_linear_2034_40" x1="75" y1="135" x2="1575" y2="1635" gradientUnits="userSpaceOnUse">
<stop stop-color="#638FE6"/>
<stop offset="1" stop-color="#7AA0EB"/>
</linearGradient>
<linearGradient id="paint7_linear_2034_40" x1="120" y1="120" x2="3120" y2="3120" gradientUnits="userSpaceOnUse">
<stop stop-color="#638FE6"/>
<stop offset="1" stop-color="#7AA0EB"/>
</linearGradient>
<clipPath id="clip0_2034_40">
<rect width="180" height="180" fill="white"/>
</clipPath>
</defs>
</svg>
