<svg width="512" height="512" viewBox="0 0 512 512" fill="none" xmlns="http://www.w3.org/2000/svg">
<g clip-path="url(#clip0_2034_2)">
<path d="M432 0H80C35.8172 0 0 35.8172 0 80V432C0 476.183 35.8172 512 80 512H432C476.183 512 512 476.183 512 432V80C512 35.8172 476.183 0 432 0Z" fill="#1A1A2E"/>
<path d="M176 96H96V176H176V96Z" fill="url(#paint0_linear_2034_2)"/>
<path d="M249 96H209V136H249V96Z" fill="url(#paint1_linear_2034_2)"/>
<path d="M416 96H336V176H416V96Z" fill="url(#paint2_linear_2034_2)"/>
<path d="M136 206H96V246H136V206Z" fill="url(#paint3_linear_2034_2)"/>
<path d="M416 206H376V246H416V206Z" fill="url(#paint4_linear_2034_2)"/>
<path d="M176 336H96V416H176V336Z" fill="url(#paint5_linear_2034_2)"/>
<path d="M249 376H209V416H249V376Z" fill="url(#paint6_linear_2034_2)"/>
<path d="M416 336H336V416H416V336Z" fill="url(#paint7_linear_2034_2)"/>
<path d="M217 202H223V208H217V202ZM223 202H229V208H223V202ZM223 196H229V202H223V196ZM217 196H223V202H217V196ZM229 196H235V202H229V196ZM229 202H235V208H229V202ZM235 202H241V208H235V202ZM235 208H241V214H235V208ZM235 196H241V202H235V196ZM235 214H241V220H235V214ZM235 226H241V232H235V226ZM235 232H241V238H235V232ZM235 238H241V244H235V238ZM235 244H241V250H235V244ZM235 250H241V256H235V250ZM235 256H241V262H235V256ZM235 262H241V268H235V262ZM235 268H241V274H235V268ZM235 274H241V280H235V274ZM235 220H241V226H235V220ZM229 208H235V214H229V208ZM223 208H229V214H223V208ZM223 214H229V220H223V214ZM223 220H229V226H223V220ZM229 220H235V226H229V220ZM229 226H235V232H229V226ZM229 232H235V238H229V232ZM229 238H235V244H229V238ZM229 244H235V250H229V244ZM229 250H235V256H229V250ZM229 256H235V262H229V256ZM229 262H235V268H229V262ZM229 214H235V220H229V214ZM217 208H223V214H217V208ZM217 214H223V220H217V214ZM217 220H223V226H217V220ZM217 226H223V232H217V226ZM217 232H223V238H217V232ZM217 238H223V244H217V238ZM217 244H223V250H217V244ZM217 250H223V256H217V250ZM217 256H223V262H217V256ZM217 262H223V268H217V262ZM217 268H223V274H217V268ZM223 268H229V274H223V268ZM223 274H229V280H223V274ZM223 262H229V268H223V262ZM223 244H229V250H223V244ZM223 238H229V244H223V238ZM223 232H229V238H223V232ZM223 226H229V232H223V226ZM223 250H229V256H223V250ZM223 256H229V262H223V256ZM217 274H223V280H217V274ZM217 280H223V286H217V280ZM223 280H229V286H223V280ZM229 274H235V280H229V274ZM229 268H235V274H229V268ZM241 274H247V280H241V274ZM241 280H247V286H241V280ZM235 280H241V286H235V280ZM229 280H235V286H229V280ZM223 286H229V292H223V286ZM229 286H235V292H229V286ZM235 286H241V292H235V286ZM241 286H247V292H241V286ZM247 286H253V292H247V286ZM247 280H253V286H247V280ZM241 292H247V298H241V292ZM235 292H241V298H235V292ZM229 292H235V298H229V292ZM247 292H253V298H247V292ZM253 292H259V298H253V292ZM253 286H259V292H253V286ZM247 310H253V316H247V310ZM253 310H259V316H253V310ZM259 310H265V316H259V310ZM259 304H265V310H259V304ZM265 304H271V310H265V304ZM253 304H259V310H253V304ZM247 304H253V310H247V304ZM241 304H247V310H241V304ZM241 298H247V304H241V298ZM235 298H241V304H235V298ZM247 298H253V304H247V298ZM253 298H259V304H253V298ZM259 298H265V304H259V298ZM265 298H271V304H265V298ZM271 298H277V304H271V298ZM271 292H277V298H271V292ZM277 292H283V298H277V292ZM283 286H289V292H283V286ZM283 280H289V286H283V280ZM289 280H295V286H289V280ZM277 280H283V286H277V280ZM277 286H283V292H277V286ZM271 286H277V292H271V286ZM265 286H271V292H265V286ZM265 292H271V298H265V292ZM259 292H265V298H259V292ZM259 286H265V292H259V286ZM259 280H265V286H259V280ZM265 280H271V286H265V280ZM265 274H271V280H265V274ZM271 280H277V286H271V280ZM271 274H277V280H271V274ZM277 274H283V280H277V274ZM283 274H289V280H283V274ZM289 274H295V280H289V274ZM289 268H295V274H289V268ZM283 268H289V274H283V268ZM277 268H283V274H277V268ZM271 268H277V274H271V268ZM271 262H277V268H271V262ZM277 262H283V268H277V262ZM283 262H289V268H283V262ZM289 262H295V268H289V262ZM289 256H295V262H289V256ZM283 256H289V262H283V256ZM277 256H283V262H277V256ZM271 256H277V262H271V256ZM289 250H295V256H289V250ZM283 250H289V256H283V250ZM277 250H283V256H277V250ZM271 250H277V256H271V250ZM271 244H277V250H271V244ZM277 244H283V250H277V244ZM283 244H289V250H283V244ZM289 244H295V250H289V244ZM289 238H295V244H289V238ZM283 238H289V244H283V238ZM277 238H283V244H277V238ZM271 238H277V244H271V238ZM289 232H295V238H289V232ZM283 232H289V238H283V232ZM277 232H283V238H277V232ZM271 232H277V238H271V232ZM271 226H277V232H271V226ZM277 226H283V232H277V226ZM283 226H289V232H283V226ZM289 226H295V232H289V226ZM289 220H295V226H289V220ZM283 220H289V226H283V220ZM277 220H283V226H277V220ZM271 220H277V226H271V220ZM271 214H277V220H271V214ZM277 214H283V220H277V214ZM283 214H289V220H283V214ZM289 214H295V220H289V214ZM289 208H295V214H289V208ZM283 208H289V214H283V208ZM277 208H283V214H277V208ZM271 208H277V214H271V208ZM271 196H277V202H271V196ZM277 196H283V202H277V196ZM283 196H289V202H283V196ZM289 196H295V202H289V196ZM289 202H295V208H289V202ZM283 202H289V208H283V202ZM277 202H283V208H277V202ZM271 202H277V208H271V202Z" fill="#648FE6"/>
</g>
<defs>
<linearGradient id="paint0_linear_2034_2" x1="96" y1="96" x2="8096" y2="8096" gradientUnits="userSpaceOnUse">
<stop stop-color="#638FE6"/>
<stop offset="1" stop-color="#7AA0EB"/>
</linearGradient>
<linearGradient id="paint1_linear_2034_2" x1="209" y1="96" x2="4209" y2="4096" gradientUnits="userSpaceOnUse">
<stop stop-color="#638FE6"/>
<stop offset="1" stop-color="#7AA0EB"/>
</linearGradient>
<linearGradient id="paint2_linear_2034_2" x1="336" y1="96" x2="8336" y2="8096" gradientUnits="userSpaceOnUse">
<stop stop-color="#638FE6"/>
<stop offset="1" stop-color="#7AA0EB"/>
</linearGradient>
<linearGradient id="paint3_linear_2034_2" x1="96" y1="206" x2="4096" y2="4206" gradientUnits="userSpaceOnUse">
<stop stop-color="#638FE6"/>
<stop offset="1" stop-color="#7AA0EB"/>
</linearGradient>
<linearGradient id="paint4_linear_2034_2" x1="376" y1="206" x2="4376" y2="4206" gradientUnits="userSpaceOnUse">
<stop stop-color="#638FE6"/>
<stop offset="1" stop-color="#7AA0EB"/>
</linearGradient>
<linearGradient id="paint5_linear_2034_2" x1="96" y1="336" x2="8096" y2="8336" gradientUnits="userSpaceOnUse">
<stop stop-color="#638FE6"/>
<stop offset="1" stop-color="#7AA0EB"/>
</linearGradient>
<linearGradient id="paint6_linear_2034_2" x1="209" y1="376" x2="4209" y2="4376" gradientUnits="userSpaceOnUse">
<stop stop-color="#638FE6"/>
<stop offset="1" stop-color="#7AA0EB"/>
</linearGradient>
<linearGradient id="paint7_linear_2034_2" x1="336" y1="336" x2="8336" y2="8336" gradientUnits="userSpaceOnUse">
<stop stop-color="#638FE6"/>
<stop offset="1" stop-color="#7AA0EB"/>
</linearGradient>
<clipPath id="clip0_2034_2">
<rect width="512" height="512" fill="white"/>
</clipPath>
</defs>
</svg>
