<svg width="192" height="192" viewBox="0 0 192 192" fill="none" xmlns="http://www.w3.org/2000/svg">
<g clip-path="url(#clip0_2034_26)">
<path d="M160 0H32C14.3269 0 0 14.3269 0 32V160C0 177.673 14.3269 192 32 192H160C177.673 192 192 177.673 192 160V32C192 14.3269 177.673 0 160 0Z" fill="#1A1A2E"/>
<path d="M64 32H32V64H64V32Z" fill="url(#paint0_linear_2034_26)"/>
<path d="M96 32H80V48H96V32Z" fill="url(#paint1_linear_2034_26)"/>
<path d="M160 32H128V64H160V32Z" fill="url(#paint2_linear_2034_26)"/>
<path d="M48 80H32V96H48V80Z" fill="url(#paint3_linear_2034_26)"/>
<path d="M160 80H144V96H160V80Z" fill="url(#paint4_linear_2034_26)"/>
<path d="M64 128H32V160H64V128Z" fill="url(#paint5_linear_2034_26)"/>
<path d="M96 144H80V160H96V144Z" fill="url(#paint6_linear_2034_26)"/>
<path d="M160 128H128V160H160V128Z" fill="url(#paint7_linear_2034_26)"/>
<path d="M83 78H85V80H83V78ZM85 78H87V80H85V78ZM85 76H87V78H85V76ZM83 76H85V78H83V76ZM87 76H89V78H87V76ZM87 78H89V80H87V78ZM89 78H91V80H89V78ZM89 80H91V82H89V80ZM89 76H91V78H89V76ZM89 82H91V84H89V82ZM89 86H91V88H89V86ZM89 88H91V90H89V88ZM89 90H91V92H89V90ZM89 92H91V94H89V92ZM89 94H91V96H89V94ZM89 96H91V98H89V96ZM89 98H91V100H89V98ZM89 100H91V102H89V100ZM89 102H91V104H89V102ZM89 84H91V86H89V84ZM87 80H89V82H87V80ZM85 80H87V82H85V80ZM85 82H87V84H85V82ZM85 84H87V86H85V84ZM87 84H89V86H87V84ZM87 86H89V88H87V86ZM87 88H89V90H87V88ZM87 90H89V92H87V90ZM87 92H89V94H87V92ZM87 94H89V96H87V94ZM87 96H89V98H87V96ZM87 98H89V100H87V98ZM87 82H89V84H87V82ZM83 80H85V82H83V80ZM83 82H85V84H83V82ZM83 84H85V86H83V84ZM83 86H85V88H83V86ZM83 88H85V90H83V88ZM83 90H85V92H83V90ZM83 92H85V94H83V92ZM83 94H85V96H83V94ZM83 96H85V98H83V96ZM83 98H85V100H83V98ZM83 100H85V102H83V100ZM85 100H87V102H85V100ZM85 102H87V104H85V102ZM85 98H87V100H85V98ZM85 92H87V94H85V92ZM85 90H87V92H85V90ZM85 88H87V90H85V88ZM85 86H87V88H85V86ZM85 94H87V96H85V94ZM85 96H87V98H85V96ZM83 102H85V104H83V102ZM83 104H85V106H83V104ZM85 104H87V106H85V104ZM87 102H89V104H87V102ZM87 100H89V102H87V100ZM91 102H93V104H91V102ZM91 104H93V106H91V104ZM89 104H91V106H89V104ZM87 104H89V106H87V104ZM85 106H87V108H85V106ZM87 106H89V108H87V106ZM89 106H91V108H89V106ZM91 106H93V108H91V106ZM93 106H95V108H93V106ZM93 104H95V106H93V104ZM91 108H93V110H91V108ZM89 108H91V110H89V108ZM87 108H89V110H87V108ZM93 108H95V110H93V108ZM95 108H97V110H95V108ZM95 106H97V108H95V106ZM93 114H95V116H93V114ZM95 114H97V116H95V114ZM97 114H99V116H97V114ZM97 112H99V114H97V112ZM99 112H101V114H99V112ZM95 112H97V114H95V112ZM93 112H95V114H93V112ZM91 112H93V114H91V112ZM91 110H93V112H91V110ZM89 110H91V112H89V110ZM93 110H95V112H93V110ZM95 110H97V112H95V110ZM97 110H99V112H97V110ZM99 110H101V112H99V110ZM101 110H103V112H101V110ZM101 108H103V110H101V108ZM103 108H105V110H103V108ZM105 106H107V108H105V106ZM105 104H107V106H105V104ZM107 104H109V106H107V104ZM103 104H105V106H103V104ZM103 106H105V108H103V106ZM101 106H103V108H101V106ZM99 106H101V108H99V106ZM99 108H101V110H99V108ZM97 108H99V110H97V108ZM97 106H99V108H97V106ZM97 104H99V106H97V104ZM99 104H101V106H99V104ZM99 102H101V104H99V102ZM101 104H103V106H101V104ZM101 102H103V104H101V102ZM103 102H105V104H103V102ZM105 102H107V104H105V102ZM107 102H109V104H107V102ZM107 100H109V102H107V100ZM105 100H107V102H105V100ZM103 100H105V102H103V100ZM101 100H103V102H101V100ZM101 98H103V100H101V98ZM103 98H105V100H103V98ZM105 98H107V100H105V98ZM107 98H109V100H107V98ZM107 96H109V98H107V96ZM105 96H107V98H105V96ZM103 96H105V98H103V96ZM101 96H103V98H101V96ZM107 94H109V96H107V94ZM105 94H107V96H105V94ZM103 94H105V96H103V94ZM101 94H103V96H101V94ZM101 92H103V94H101V92ZM103 92H105V94H103V92ZM105 92H107V94H105V92ZM107 92H109V94H107V92ZM107 90H109V92H107V90ZM105 90H107V92H105V90ZM103 90H105V92H103V90ZM101 90H103V92H101V90ZM107 88H109V90H107V88ZM105 88H107V90H105V88ZM103 88H105V90H103V88ZM101 88H103V90H101V88ZM101 86H103V88H101V86ZM103 86H105V88H103V86ZM105 86H107V88H105V86ZM107 86H109V88H107V86ZM107 84H109V86H107V84ZM105 84H107V86H105V84ZM103 84H105V86H103V84ZM101 84H103V86H101V84ZM101 82H103V84H101V82ZM103 82H105V84H103V82ZM105 82H107V84H105V82ZM107 82H109V84H107V82ZM107 80H109V82H107V80ZM105 80H107V82H105V80ZM103 80H105V82H103V80ZM101 80H103V82H101V80ZM101 76H103V78H101V76ZM103 76H105V78H103V76ZM105 76H107V78H105V76ZM107 76H109V78H107V76ZM107 78H109V80H107V78ZM105 78H107V80H105V78ZM103 78H105V80H103V78ZM101 78H103V80H101V78Z" fill="#648FE6"/>
</g>
<defs>
<linearGradient id="paint0_linear_2034_26" x1="32" y1="32" x2="3232" y2="3232" gradientUnits="userSpaceOnUse">
<stop stop-color="#638FE6"/>
<stop offset="1" stop-color="#7AA0EB"/>
</linearGradient>
<linearGradient id="paint1_linear_2034_26" x1="80" y1="32" x2="1680" y2="1632" gradientUnits="userSpaceOnUse">
<stop stop-color="#638FE6"/>
<stop offset="1" stop-color="#7AA0EB"/>
</linearGradient>
<linearGradient id="paint2_linear_2034_26" x1="128" y1="32" x2="3328" y2="3232" gradientUnits="userSpaceOnUse">
<stop stop-color="#638FE6"/>
<stop offset="1" stop-color="#7AA0EB"/>
</linearGradient>
<linearGradient id="paint3_linear_2034_26" x1="32" y1="80" x2="1632" y2="1680" gradientUnits="userSpaceOnUse">
<stop stop-color="#638FE6"/>
<stop offset="1" stop-color="#7AA0EB"/>
</linearGradient>
<linearGradient id="paint4_linear_2034_26" x1="144" y1="80" x2="1744" y2="1680" gradientUnits="userSpaceOnUse">
<stop stop-color="#638FE6"/>
<stop offset="1" stop-color="#7AA0EB"/>
</linearGradient>
<linearGradient id="paint5_linear_2034_26" x1="32" y1="128" x2="3232" y2="3328" gradientUnits="userSpaceOnUse">
<stop stop-color="#638FE6"/>
<stop offset="1" stop-color="#7AA0EB"/>
</linearGradient>
<linearGradient id="paint6_linear_2034_26" x1="80" y1="144" x2="1680" y2="1744" gradientUnits="userSpaceOnUse">
<stop stop-color="#638FE6"/>
<stop offset="1" stop-color="#7AA0EB"/>
</linearGradient>
<linearGradient id="paint7_linear_2034_26" x1="128" y1="128" x2="3328" y2="3328" gradientUnits="userSpaceOnUse">
<stop stop-color="#638FE6"/>
<stop offset="1" stop-color="#7AA0EB"/>
</linearGradient>
<clipPath id="clip0_2034_26">
<rect width="192" height="192" fill="white"/>
</clipPath>
</defs>
</svg>
